<svg width="17" height="17" viewBox="0 0 17 17" fill="none" xmlns="http://www.w3.org/2000/svg">
<path fill-rule="evenodd" clip-rule="evenodd" d="M0.140291 6.92777L0.141772 5.29453C0.141772 4.39615 0.937123 3.66115 1.92019 3.66115H4.95862V2.02571C4.95862 1.12474 5.67172 0.394531 6.56562 0.394531H9.78584C10.6734 0.394531 11.3928 1.1261 11.3928 2.02571V3.66115H14.4313C15.4143 3.66115 16.2186 4.39615 16.2186 5.29453V6.92777H0.140291ZM0.13881 8.56115H16.2185V15.0946C16.2185 15.9928 15.4143 16.7278 14.4312 16.7278H1.92013C0.937056 16.7278 0.132812 15.9928 0.132812 15.0946L0.13881 8.56115ZM6.56704 2.0277V3.66108H9.78429V2.0277H6.56704ZM6.56704 8.56115V10.1945H9.78429V8.56115H6.56704Z" fill="white"/>
</svg>
